<?xml version="1.0" standalone="no"?>
<!DOCTYPE svg PUBLIC "-//W3C//DTD SVG 20010904//EN"
 "http://www.w3.org/TR/2001/REC-SVG-20010904/DTD/svg10.dtd">
<svg version="1.0" xmlns="http://www.w3.org/2000/svg"
 width="300.000000pt" height="300.000000pt" viewBox="0 0 300.000000 300.000000"
 preserveAspectRatio="xMidYMid meet">
<metadata>
Created by potrace 1.10, written by Peter Selinger 2001-2011
</metadata>
<g transform="translate(0.000000,300.000000) scale(0.100000,-0.100000)"
fill="#000000" stroke="none">
<path d="M2170 1999 c-61 -8 -110 -30 -157 -73 l-40 -35 -29 30 c-53 56 -100
74 -189 73 -92 -1 -152 -23 -199 -73 -17 -17 -34 -31 -39 -31 -6 0 -25 18 -44
39 -35 41 -101 71 -158 71 -17 0 -54 -12 -83 -26 l-52 -26 -34 21 c-48 30
-113 37 -160 17 -27 -11 -43 -13 -56 -6 -26 14 -117 13 -143 -2 -45 -23 -46
-33 -46 -258 0 -154 3 -220 12 -231 21 -27 54 -39 111 -39 43 0 61 5 82 23 26
22 27 26 29 148 3 149 2 139 19 139 22 0 26 -23 26 -136 0 -109 13 -155 45
-168 9 -3 43 -6 75 -6 47 0 64 5 85 23 25 21 26 26 28 144 1 76 7 127 14 134
25 25 33 -3 33 -121 0 -65 3 -126 6 -135 10 -26 60 -45 119 -45 48 0 60 4 80
26 14 15 25 33 25 40 0 21 14 17 40 -11 14 -15 52 -34 93 -47 97 -29 193 -22
284 23 58 28 68 30 87 19 59 -38 105 -53 172 -56 63 -3 81 0 136 25 67 30 104
66 140 135 31 58 31 173 1 236 -55 115 -177 177 -313 159z m167 -60 c170 -82
178 -331 15 -426 -79 -47 -203 -43 -289 9 l-32 19 45 44 c24 25 44 51 44 60 0
13 4 12 28 -4 48 -34 103 -31 143 8 65 65 15 171 -80 171 -44 0 -84 -39 -104
-104 -34 -106 -122 -189 -235 -222 -73 -22 -182 -15 -239 14 -139 72 -167 268
-53 382 65 65 155 86 253 59 51 -14 117 -78 117 -113 0 -79 -93 -156 -189
-156 -22 0 -52 -5 -68 -11 l-28 -11 28 -24 c22 -19 39 -24 83 -24 107 0 179
63 199 175 27 149 211 227 362 154z m-1220 5 c19 -10 41 -27 50 -40 l15 -23
24 29 c31 36 83 54 141 47 57 -6 92 -31 121 -87 20 -41 22 -58 22 -212 l0
-168 -75 0 -75 0 0 138 c0 160 -8 182 -66 182 -54 0 -66 -40 -62 -197 l3 -123
-77 0 -78 0 0 138 c0 155 -9 182 -60 182 -54 0 -60 -17 -60 -176 l0 -144 -80
0 -80 0 0 230 0 230 76 0 76 0 -4 -30 c-6 -37 -2 -37 24 -4 37 46 103 57 165
28z m1140 -186 c27 -25 29 -45 7 -76 -17 -25 -81 -31 -102 -10 -19 19 -14 66
8 88 26 26 58 25 87 -2z"/>
<path d="M1688 1805 c-23 -23 -44 -82 -34 -93 3 -2 17 8 33 23 31 30 82 55
113 55 25 0 26 9 3 26 -30 23 -87 17 -115 -11z"/>
<path d="M2632 140 c-16 -26 -15 -45 3 -60 17 -14 21 0 4 17 -18 18 -2 43 26
43 20 0 25 -5 25 -25 0 -13 -8 -29 -17 -35 -17 -11 -17 -11 0 -6 10 3 64 6
120 6 64 0 97 4 88 9 -8 5 -20 7 -28 4 -10 -4 -11 0 -4 18 6 16 15 23 27 21
15 -3 16 -1 7 8 -7 8 -17 9 -28 3 -9 -6 -37 -6 -63 -2 -72 12 -82 11 -76 -6 5
-12 10 -13 20 -4 9 8 14 8 14 1 0 -6 11 -9 24 -6 17 3 26 -1 29 -13 4 -17 5
-17 6 0 1 24 21 22 21 -2 0 -18 -7 -20 -60 -18 -55 2 -60 4 -60 24 0 40 -57
57 -78 23z"/>
</g>
</svg>
